# xmcd
#
# Track frame offsets:
#	182
#	16537
#	26082
#	39392
#	57755
#	69200
#	81152
#	93070
#	104532
#	117020
#	128620
#	148267
#	166770
#	179530
#
# Disc length: 2532 seconds
#
# Revision: 0
# Processed by: cddbd v1.5.1PL0 Copyright (c) Steve Scherf et al.
# Submitted via: audiograbber 1.83.01
#
DISCID=a709e20e
DTITLE=T. O. Karabina - 30 let-
DYEAR=1994
DGENRE=trampska
TTITLE0=Vandrovnici
TTITLE1=Zajatci
TTITLE2=Mexiko
TTITLE3=Odchazet za svitani
TTITLE4=Novy faro
TTITLE5=Battleration
TTITLE6=Flastr co me ucil statl
TTITLE7=Zlodeji koni
TTITLE8=Strach
TTITLE9=Podzimni symfonie
TTITLE10=Danny Flaska
TTITLE11=V pulce trati
TTITLE12=Elitni jednotka
TTITLE13=Zlaty dest
EXTD=
EXTT0=
EXTT1=
EXTT2=
EXTT3=
EXTT4=
EXTT5=
EXTT6=
EXTT7=
EXTT8=
EXTT9=
EXTT10=
EXTT11=
EXTT12=
EXTT13=
PLAYORDER=
